<?xml version="1.0" encoding="UTF-8"?> <svg xmlns="http://www.w3.org/2000/svg" viewBox="0 0 135 23"><path d="M20.73,22.61H16.21v-13L13.28,20.06a10.55,10.55,0,0,1-.59,1.74,2.13,2.13,0,0,1-2.05,1.14,2.19,2.19,0,0,1-2.08-1.17A11.21,11.21,0,0,1,7.89,20L4.52,9.45V22.61H0V5.08Q0,3.6.07,3A3.25,3.25,0,0,1,.36,2,2.89,2.89,0,0,1,1.55.67,3.36,3.36,0,0,1,3.29.18a3.31,3.31,0,0,1,1.5.36,3.07,3.07,0,0,1,1.14.94,4.65,4.65,0,0,1,.45.79q.14.33.61,1.86L10.5,15.23l3.09-11q.39-1.43.54-1.81a4.28,4.28,0,0,1,.49-.86A3,3,0,0,1,17.25.2a3.45,3.45,0,0,1,1.81.5A3.1,3.1,0,0,1,20.29,2a7.33,7.33,0,0,1,.44,3ZM35.43,3.3Q34.48,0,31.94,0a3.16,3.16,0,0,0-2.47,1.16,5.34,5.34,0,0,0-1,2.11L23,22.61h4.77l1.12-4.31h6L36,22.61h4.92ZM30,14l1.89-7.48L33.85,14ZM54.89.41V14.1L50.06,3.53A8.71,8.71,0,0,0,48.42.87,2.71,2.71,0,0,0,46.49.16a3.18,3.18,0,0,0-1.73.48A2.84,2.84,0,0,0,43.65,2a3.55,3.55,0,0,0-.31,1q0,.46,0,2.14V22.61h4.52V8.36L53,19.63a14.87,14.87,0,0,0,1,2,2.85,2.85,0,0,0,2.47,1.29A3,3,0,0,0,58,22.41a2.5,2.5,0,0,0,1-1.18,8.89,8.89,0,0,0,.36-3V.41ZM68,22.61V12.23a2,2,0,0,0,.7,1.44,3.16,3.16,0,0,0,1.81.4l.54,0a2.37,2.37,0,0,1,1.59.39A2,2,0,0,1,73,15.92v6.69h4.56V15.49q.1-3.42-2.44-4a6.29,6.29,0,0,0,2.2-4.72,5.88,5.88,0,0,0-2.68-5.14A6.37,6.37,0,0,0,72.73.68,9.14,9.14,0,0,0,70.33.41H68a10.16,10.16,0,0,0-2.15.15,3.29,3.29,0,0,0-1.27.69,2.78,2.78,0,0,0-.9,1.33A9.41,9.41,0,0,0,63.43,5V22.61ZM70,4.78a3.13,3.13,0,0,1,2.08.61,2.19,2.19,0,0,1,.72,1.76,2.55,2.55,0,0,1-.52,1.56,2.5,2.5,0,0,1-1.87.88,3.38,3.38,0,0,0-1.81.56,2.22,2.22,0,0,0-.62,1.5V4.78ZM90.66,0A11.35,11.35,0,0,0,83,2.88a11.09,11.09,0,0,0-3.91,8.62,11.37,11.37,0,0,0,1.53,5.73A11.17,11.17,0,0,0,85,21.52a11.46,11.46,0,0,0,15.41-4.07,10.92,10.92,0,0,0,1.66-5.76,11.22,11.22,0,0,0-3.27-8.2A11,11,0,0,0,90.66,0m0,4.39a6.69,6.69,0,0,1,4.65,1.9,7,7,0,0,1,2.26,5.29,6.87,6.87,0,0,1-1.68,4.51,6.58,6.58,0,0,1-5.26,2.47A6.76,6.76,0,0,1,86,16.85a6.81,6.81,0,0,1-2.39-5.35,6.85,6.85,0,0,1,1.71-4.64,6.71,6.71,0,0,1,5.29-2.44m25-3.74A15.68,15.68,0,0,0,111.29,0a9.16,9.16,0,0,0-3.6.63,6.4,6.4,0,0,0-2.53,2A6.94,6.94,0,0,0,103.64,7a6.58,6.58,0,0,0,1,3.58q1.27,2,4.7,2.86a15.38,15.38,0,0,1,2.38.72,2,2,0,0,1,1.17,1.9,2.37,2.37,0,0,1-.85,1.85,3.36,3.36,0,0,1-2.29.72A15.64,15.64,0,0,1,104,17.21v4.72A18.94,18.94,0,0,0,109.68,23a8.31,8.31,0,0,0,5.4-1.67A6.54,6.54,0,0,0,117.52,16a6.48,6.48,0,0,0-1.72-4.59,5,5,0,0,0-1.59-1.18,21.14,21.14,0,0,0-3.07-1,6.28,6.28,0,0,1-2.33-1,1.87,1.87,0,0,1-.62-1.51A2.34,2.34,0,0,1,109,5a3.33,3.33,0,0,1,2.38-.8,10.33,10.33,0,0,1,4.3,1.11V.68m8.76-.28a4.82,4.82,0,0,0-3.53,1.07,5.12,5.12,0,0,0-1,3.64v12.8a8.43,8.43,0,0,0,.21,2.08,3.43,3.43,0,0,0,.72,1.4,3.12,3.12,0,0,0,1.38,1,7.4,7.4,0,0,0,2.27.27h6.51V18.25h-6.56V13.14h6.12V8.91h-6.12V4.75h6.56V.41Zm8.92,3.24A1.6,1.6,0,0,0,135,2a1.66,1.66,0,0,0-3.32,0,1.6,1.6,0,0,0,1.66,1.65m0-2.92A1.2,1.2,0,0,1,134.52,2a1.2,1.2,0,0,1-1.18,1.27h0A1.19,1.19,0,0,1,132.16,2,1.19,1.19,0,0,1,133.34.73m-.28,1.41h.18l.41.75h.45l-.46-.78a.42.42,0,0,0,.43-.46c0-.41-.27-.54-.73-.54h-.66V2.88h.38Zm0-.3V1.41h.27c.14,0,.34,0,.34.2s-.1.23-.27.23Z"></path></svg> 