<?xml version="1.0" encoding="UTF-8"?> <svg xmlns="http://www.w3.org/2000/svg" xmlns:xlink="http://www.w3.org/1999/xlink" width="125px" height="32px" viewBox="0 0 125 32" version="1.1"><title>Rinnai_Logo_Black Copy</title><g id="Page-1" stroke="none" stroke-width="1" fill="none" fill-rule="evenodd"><g id="Rinnai-Desktop-Home-v3" transform="translate(-181.000000, -4084.000000)" fill="#CF000E"><g id="Group-13" transform="translate(0.000000, 4044.000000)"><g id="Rinnai_Logo_Black-Copy" transform="translate(181.000000, 40.000000)"><path d="M31.5078947,0.244298246 C29.5973684,0.244298246 28.0482456,1.79429825 28.0482456,3.70614035 C28.0482456,5.61798246 29.5973684,7.16798246 31.5078947,7.16798246 C33.4179825,7.16798246 34.9671053,5.61798246 34.9671053,3.70614035 C34.9671053,1.79429825 33.4179825,0.244298246 31.5078947,0.244298246" id="Fill-1"></path><path d="M34.1429825,8.70614035 L28.8719298,8.70614035 C28.4864035,8.70614035 28.1736842,9.01885965 28.1736842,9.40526316 L28.1736842,30.2837719 C28.1736842,30.6701754 28.4864035,30.9833333 28.8719298,30.9833333 L34.1429825,30.9833333 C34.5285088,30.9833333 34.8416667,30.6701754 34.8416667,30.2837719 L34.8416667,9.40526316 C34.8416667,9.01885965 34.5285088,8.70614035 34.1429825,8.70614035" id="Fill-2"></path><path d="M52.3508772,8.15964912 C47.3942982,8.15964912 45.9539474,10.2263158 45.0951754,11.0763158 L45.0951754,9.4122807 C45.0951754,9.02236842 44.7850877,8.70657895 44.4026316,8.70657895 L39.2307018,8.70657895 C38.8486842,8.70657895 38.5390351,9.02236842 38.5390351,9.4122807 L38.5390351,30.2767544 C38.5390351,30.6671053 38.8486842,30.9828947 39.2307018,30.9828947 L44.5153509,30.9828947 C44.8973684,30.9828947 45.2074561,30.6671053 45.2074561,30.2767544 L45.2074561,18.4754386 C45.2074561,15.4473684 47.0399123,13.1982456 50.0991228,13.1982456 C53.377193,13.1982456 54.9833333,15.5109649 54.9833333,18.4754386 L54.9833333,30.2767544 C54.9833333,30.6671053 55.2929825,30.9828947 55.675,30.9828947 L60.9592105,30.9828947 C61.3412281,30.9828947 61.6508772,30.6671053 61.6508772,30.2767544 L61.6508772,16.8385965 C61.6508772,10.3263158 57.1118421,8.15964912 52.3508772,8.15964912" id="Fill-3"></path><path d="M79.0885965,8.15964912 C74.1320175,8.15964912 72.6916667,10.2263158 71.8328947,11.0763158 L71.8328947,9.4122807 C71.8328947,9.02236842 71.5232456,8.70657895 71.1407895,8.70657895 L65.9684211,8.70657895 C65.5864035,8.70657895 65.2767544,9.02236842 65.2767544,9.4122807 L65.2767544,30.2767544 C65.2767544,30.6671053 65.5864035,30.9828947 65.9684211,30.9828947 L71.2530702,30.9828947 C71.6350877,30.9828947 71.9451754,30.6671053 71.9451754,30.2767544 L71.9451754,18.4754386 C71.9451754,15.4473684 73.7776316,13.1982456 76.8368421,13.1982456 C80.1149123,13.1982456 81.7210526,15.5109649 81.7210526,18.4754386 L81.7210526,30.2767544 C81.7210526,30.6671053 82.0307018,30.9828947 82.4127193,30.9828947 L87.6969298,30.9828947 C88.0789474,30.9828947 88.3885965,30.6671053 88.3885965,30.2767544 L88.3885965,16.8385965 C88.3885965,10.3263158 83.8495614,8.15964912 79.0885965,8.15964912" id="Fill-4"></path><path d="M121.149561,7.16798246 C123.060088,7.16798246 124.608772,5.61842105 124.608772,3.70614035 C124.608772,1.79429825 123.060088,0.244736842 121.149561,0.244736842 C119.239035,0.244736842 117.689912,1.79429825 117.689912,3.70614035 C117.689912,5.61842105 119.239035,7.16798246 121.149561,7.16798246" id="Fill-5"></path><path d="M123.785088,8.70614035 L118.514035,8.70614035 C118.128509,8.70614035 117.815789,9.01885965 117.815789,9.40526316 L117.815789,30.2837719 C117.815789,30.6701754 118.128509,30.9833333 118.514035,30.9833333 L123.785088,30.9833333 C124.170614,30.9833333 124.483333,30.6701754 124.483333,30.2837719 L124.483333,9.40526316 C124.483333,9.01885965 124.170614,8.70614035 123.785088,8.70614035" id="Fill-6"></path><path d="M18.2083333,18.9416667 C19.6035088,18.4592105 23.4596491,17.1631579 23.4596491,10.6399123 C23.4596491,4.11622807 19.1614035,1.72192982 11.5789474,1.72192982 L0.853508772,1.72192982 C0.468421053,1.72192982 0.157017544,2.025 0.157017544,2.39868421 L0.157017544,30.3065789 C0.157017544,30.6798246 0.468421053,30.9833333 0.853508772,30.9833333 L6.14605263,30.9833333 C6.53070175,30.9833333 6.84254386,30.6798246 6.84254386,30.3065789 L6.84254386,19.5578947 L10.9767544,19.5578947 L18.3175439,30.1469298 C18.6587719,30.6675439 19.25,30.9833333 19.8850877,30.9833333 L25.5166667,30.9833333 C25.9561404,30.9833333 26.222807,30.5109649 25.9864035,30.1504386 L18.2083333,18.9416667 Z M10.8333333,14.9149123 L6.84254386,14.9149123 L6.84254386,6.36491228 L10.8333333,6.36491228 C14.0767544,6.36491228 16.7736842,6.92631579 16.7736842,10.6399123 C16.7736842,14.3535088 14.0767544,14.9149123 10.8333333,14.9149123 L10.8333333,14.9149123 Z" id="Fill-7"></path><path d="M98.672807,8.77631579 C94.1513158,10.0214912 92.4657895,12.8328947 91.8596491,14.6144737 C91.7491228,14.9399123 92.0991228,15.2157895 92.4114035,15.2140351 L98.3552632,15.1785088 C98.5745614,15.177193 98.8083333,15.1127193 98.9403509,14.9434211 C100.190351,13.3412281 102.064035,13.0179825 103.797368,13.1162281 C108.090789,13.3614035 107.743421,16.8394737 107.743421,17.1267544 C93.3425439,15.8188596 89.7337719,22.2394737 91.5631579,26.9723684 C93.6600877,32.4 104.203509,33.0372807 107.637281,29.2469298 C108.057018,30.4425439 108.150877,30.9833333 109.09693,30.9833333 L113.566667,30.9833333 C113.960526,30.9833333 114.280263,30.6671053 114.280263,30.277193 L114.280263,17.1157895 C114.280263,7.60789474 103.614474,7.41578947 98.672807,8.77631579 M107.807018,22.1864035 C107.807018,25.4070175 105.738158,27.3144737 102.210526,27.4114035 C99.595614,27.4833333 97.3903509,26.372807 97.329386,24.6473684 C97.1912281,20.7390351 105.317544,20.9017544 107.138596,21.0192982 C107.773684,21.0600877 107.807018,21.0605263 107.807018,21.3837719 L107.807018,22.1864035" id="Fill-8"></path></g></g></g></g></svg> 